<svg version="1.1" xmlns="http://www.w3.org/2000/svg" xmlns:xlink="http://www.w3.org/1999/xlink" x="0px" y="0px" viewBox="0 0 64 64" xml:space="preserve"><title>gift 2</title><g class="nc-icon-wrapper" fill="#ffc107"><path data-color="color-2" d="M62,13H48.889C50.19,11.728,51,9.958,51,8c0-3.859-3.14-7-7-7 c-6.807,0-10.432,6.225-12,9.981C30.432,7.225,26.807,1,20,1c-3.86,0-7,3.141-7,7c0,1.958,0.81,3.728,2.111,5H2 c-0.552,0-1,0.447-1,1v8c0,0.553,0.448,1,1,1h60c0.552,0,1-0.447,1-1v-8C63,13.447,62.552,13,62,13z M44,3c2.757,0,5,2.243,5,5 s-2.243,5-5,5H33.371C34.423,10.067,37.621,3,44,3z M15,8c0-2.757,2.243-5,5-5c6.364,0,9.57,7.066,10.626,10H20 C17.243,13,15,10.757,15,8z"/> <path fill="#ffc107" d="M57,25H36v36h17c2.209,0,4-1.791,4-4V25z"/> <path fill="#ffc107" d="M28,25H7v32c0,2.209,1.791,4,4,4h17V25z"/></g></svg>